<?xml version="1.0" standalone="no"?>
<!DOCTYPE svg PUBLIC "-//W3C//DTD SVG 20010904//EN"
 "http://www.w3.org/TR/2001/REC-SVG-20010904/DTD/svg10.dtd">
<svg version="1.0" xmlns="http://www.w3.org/2000/svg"
 width="109.000000pt" height="77.000000pt" viewBox="0 0 109.000000 77.000000"
 preserveAspectRatio="xMidYMid meet">
<metadata>
Created by potrace 1.16, written by Peter Selinger 2001-2019
</metadata>
<g transform="translate(0.000000,77.000000) scale(0.100000,-0.100000)"
fill="#000000" stroke="none">
<path d="M584 754 c-33 -8 -105 -74 -120 -111 -9 -20 -14 -70 -14 -128 l0 -95
-140 0 -140 0 0 160 c0 154 -1 160 -20 160 -38 0 -87 -28 -116 -66 l-29 -37
-3 -320 -3 -320 36 6 c50 8 94 43 116 91 15 32 19 67 19 161 1 74 4 112 10
100 11 -27 49 -61 83 -74 16 -6 64 -11 108 -11 l79 0 0 -135 c0 -154 0 -153
80 -112 35 17 50 33 70 74 14 28 28 52 31 52 4 1 9 -12 12 -27 8 -39 48 -79
93 -91 82 -23 207 -6 261 35 94 72 109 243 28 320 l-34 31 25 12 c39 17 68 92
61 158 -8 75 -33 113 -92 143 -47 23 -61 25 -215 26 -91 2 -175 0 -186 -2z
m97 -109 c16 -16 36 -21 109 -23 107 -5 126 -18 124 -88 -2 -76 -16 -84 -161
-84 l-123 0 1 148 c0 141 1 145 15 107 8 -22 24 -49 35 -60z m13 -303 c15 -6
62 -12 105 -12 62 0 81 -4 93 -17 24 -28 30 -60 18 -97 -15 -46 -47 -56 -176
-56 l-104 0 0 138 0 137 19 -40 c10 -23 29 -46 45 -53z"/>
</g>
</svg>
